<?xml version="1.0" encoding="UTF-8" standalone="no"?>
<?xml-stylesheet href="../css/svg.css" type="text/css"?>
<svg width="100%" height="100%" viewBox="0 0 251 294" version="1.1" xmlns="http://www.w3.org/2000/svg" xmlns:xlink="http://www.w3.org/1999/xlink" xmlns:sketch="http://www.bohemiancoding.com/sketch/ns">
    <!-- Generator: Sketch 3.0.4 (8054) - http://www.bohemiancoding.com/sketch -->
    <title>bird</title>
    <desc>Created with Sketch.</desc>
    <defs></defs>
    <g id="Page-1" stroke="none" stroke-width="1" fill="none" fill-rule="evenodd" sketch:type="MSPage">
        <g id="bird" sketch:type="MSLayerGroup" transform="translate(0.000000, 1.000000)">
            <g id="feet" transform="translate(51.000000, 218.000000)" fill="#E99D45" sketch:type="MSShapeGroup">
                <path d="M30.2702158,0.321009096 L28.0176999,52.1288551 L15.3440044,72.2607063 L12.3908784,70.2897514 L23.5093705,52.1288551 L3.66238257,62.9690803 L2.11377856,59.7310928 L19.7115514,50.4394668 L0.421092814,47.6238235 L0.421092814,44.6673988 L23.5093706,47.6238235 L25.4836213,0.321009096 L30.2702158,0.321009096 Z" id="foot_left"></path>
                <path d="M66.2702158,2.3210091 L64.0176999,54.1288551 L51.3440044,74.2607063 L48.3908784,72.2897514 L59.5093705,54.1288551 L39.6623826,64.9690803 L38.1137786,61.7310928 L55.7115514,52.4394668 L36.4210928,49.6238235 L36.4210928,46.6673988 L59.5093706,49.6238235 L61.4836213,2.3210091 L66.2702158,2.3210091 Z" id="foot_right" transform="translate(51.000000, 38.000000) scale(-1, 1) translate(-51.000000, -38.000000) "></path>
            </g>
            <g id="body" sketch:type="MSShapeGroup">
                <path d="M78.9980469,42.4980469 C89.9980469,7.49804687 61.9980469,10.4980469 57.9980469,8.49804687 C36.4980469,14.9980469 46.4980471,28.9980469 46.4980469,28.9980469 C60.9228409,37.1373178 64.4811259,29.1982975 58.944973,19.3412437 C58.944973,14.4579353 63.5359287,19.8403267 63.5359287,19.3412437 C79.7393016,43.3762474 46.4980468,39.7304878 45.8472456,35.9980469 C24.6721711,19.3412437 52.5986509,2.59775776 53.9980469,1.99804687 C74.4732052,-6.98923779 88.1110455,13.4000069 89.9980469,15.4980469 C102.694084,2.86781392 112.82119,7.49804697 114.498047,7.49804687 C136.721168,23.527115 119.977676,34.3293649 116.498047,35.9980469 C101.343799,35.998047 106.474868,19.3412438 108.998047,20.9980469 C112.146049,38.515236 120.922874,26.0926496 118.762428,20.998047 C115.791809,15.498047 109.985595,7.49804697 97.6980397,20.998047 C93.1757453,27.7603718 101.998047,42.4980469 101.998047,42.4980469 L78.9980469,42.4980469 Z" id="Path-48" fill="#94CBC0"></path>
                <circle id="Oval-17" fill="#94CBC0" cx="90" cy="131" r="90"></circle>
                <ellipse id="Oval-18" fill="#ADDAD2" cx="126.5" cy="146" rx="17.5" ry="13"></ellipse>
                <ellipse id="Oval-19" fill="#ADDAD2" cx="49.5" cy="149" rx="17.5" ry="13"></ellipse>
                <circle id="Oval-20" fill="#553E1F" cx="59" cy="128" r="6"></circle>
                <circle id="Oval-21" fill="#553E1F" cx="115" cy="127" r="6"></circle>
                <path d="M73.3404061,48.1167895 C61.4993505,55.3333332 5.65950532,72.6666667 4.65251394,149.87663 C4.65251393,149.876631 -13.1673179,74.0000006 73.3404061,48.1167895 Z" id="Path-50" fill="#ADDAD2"></path>
                <path d="M73.6167969,148.173047 L101.116797,147.973047 L87.6167969,169.273047 L73.6167969,148.173047 Z" id="Triangle-6" fill="#E99D45"></path>
            </g>
            <g id="wings" transform="translate(165.000000, 88.000000)" sketch:type="MSShapeGroup">
                <g id="wing_bottom" transform="translate(1.000000, 45.000000)">
                    <path d="M4.81115302,23.4710224 L13.6572431,6.2701023 L71.3880421,26.2692821 L53.2462734,59.2844494 L4.81115302,23.4710224 Z" fill="#94CBC0" transform="translate(38.292695, 33.118718) rotate(-13.000000) translate(-38.292695, -33.118718) "></path>
                    <path d="M24.7490234,37.5 L52.9990234,46.25 L60.7490234,21.5 L64.7490234,21.5 L54.7490234,50.75 L24.7490234,37.5 Z" id="glare" fill="#ADDAD2"></path>
                </g>
                <g id="wing_top">
                    <path d="M8.92554207,29.0224867 L4.98858519,49.4093809 L80.1654651,61.633811 L78.7651584,7.68613412 L8.92554207,29.0224867 Z" fill="#94CBC0" transform="translate(42.624037, 34.757997) rotate(-13.000000) translate(-42.624037, -34.757997) "></path>
                    <path d="M34.2490234,27.75 L69.2490234,7.75 L80.9990234,49.5 L75.9990234,51 L66.4990234,13.75 L34.2490234,27.75 Z" id="glare" fill="#ADDAD2"></path>
                </g>
            </g>
        </g>
    </g>
</svg>