<?xml version="1.0" encoding="UTF-8" standalone="no"?>
<svg width="100%" height="100%" viewBox="0 0 326 182" version="1.1" xmlns="http://www.w3.org/2000/svg" xmlns:xlink="http://www.w3.org/1999/xlink" xmlns:sketch="http://www.bohemiancoding.com/sketch/ns">
    <!-- Generator: Sketch 3.0.4 (8054) - http://www.bohemiancoding.com/sketch -->
    <title>cloud</title>
    <desc>Created with Sketch.</desc>
    <defs></defs>
    <g id="Page-1" stroke="none" stroke-width="1" fill="none" fill-rule="evenodd" sketch:type="MSPage">
        <g id="cloud" sketch:type="MSLayerGroup" fill="#FFFFFF">
            <path d="M39.9672269,50.0012611 C39.9672269,50.0012611 48.7907546,15.8366597 86.8913381,5.83233538 C124.991922,-4.1719889 159.967845,22.7314095 159.967845,22.7314095 C159.967845,22.7314095 174.182613,0.965896671 214.026484,0.965896671 C253.870355,0.965896671 264.7976,31.7766216 264.7976,31.7766216 C264.7976,31.7766216 283.251443,25.3267441 300.026864,35.5165559 C316.802285,45.7063676 311.961489,63.5585229 311.961489,63.5585229 C311.961489,63.5585229 325.799234,73.7483369 325.799246,92.0921104 C325.799259,110.435884 300.026876,117.478423 300.026876,117.478423 C300.026876,117.478423 311.961496,135.855377 290.696645,153.739197 C269.431795,171.623016 245.303192,150.964407 245.303192,150.964407 C245.303192,150.964407 236.423868,178.062347 185.286295,181.214142 C134.148723,184.365936 121.835595,157.933051 121.835595,157.933051 C121.835595,157.933051 106.927133,172.597214 89.2091926,168.235966 C71.4912523,163.874719 70.4054664,145.739055 70.4054664,145.739055 C70.4054664,145.739055 39.9672254,157.933044 25.5051423,144.134503 C11.0430592,130.335961 16.1462583,115.587343 16.1462583,115.587343 C16.1462583,115.587343 -8.25379661,104.507793 3.94623077,75.8610993 C16.1462582,47.2144051 39.9672269,50.0012611 39.9672269,50.0012611 Z" sketch:type="MSShapeGroup"></path>
        </g>
    </g>
</svg>