<?xml version="1.0" encoding="UTF-8" standalone="no"?>
<?xml-stylesheet href="../css/svg.css" type="text/css"?>
<svg width="100%" height="100%" viewBox="0 0 486 757" version="1.1" xmlns="http://www.w3.org/2000/svg" xmlns:xlink="http://www.w3.org/1999/xlink" xmlns:sketch="http://www.bohemiancoding.com/sketch/ns">
    <!-- Generator: Sketch 3.0.4 (8054) - http://www.bohemiancoding.com/sketch -->
    <title>Kris og Malin</title>
    <desc>Created with Sketch.</desc>
    <defs></defs>
    <g id="Page-1" stroke="none" stroke-width="1" fill="none" fill-rule="evenodd" sketch:type="MSPage">
        <g id="Kris-og-Malin" sketch:type="MSLayerGroup" transform="translate(-4.000000, 1.000000)">
            <g id="Malin" transform="translate(0.000000, 518.000000)" sketch:type="MSShapeGroup">
                <g id="Hode">
                    <path d="M18.9295546,82.8784918 C15.8587343,81.935055 9.71917191,84.8216793 9.71917191,84.8216793 C9.71917191,84.8216793 13.5343355,92.9620909 15.0294625,97.2868187 C15.9800301,100.036382 17.0562559,106.044553 17.0562559,106.044553 C17.0562559,106.044553 14.1804811,111.541297 12.7492381,113.531867 C10.924635,116.069522 7.28871787,119.62923 7.28871787,119.62923 C7.28871787,119.62923 14.7551485,120.618309 18.9295546,119.305909 C23.4297118,117.891097 33.3124077,111.447594 33.3124077,111.447594 C33.3124077,111.447594 32.6674489,114.088607 32.2483908,115.149121 C31.6323885,116.708045 30.2072267,119.30591 30.2072267,119.30591 C30.2072267,119.30591 43.1132472,116.530418 47.4588114,113.531867 C53.1455379,109.60788 60.3040989,98.5382971 60.3040989,98.5382971 C60.3040989,98.5382971 48.5830486,98.6501224 42.84611,97.2868187 C39.8442567,96.57347 34.0877232,92.3083399 34.0877232,92.3083399 C34.0877232,92.3083399 23.9815848,84.4306085 18.9295546,82.8784918 Z" id="Hår-venstre" fill="#D5CA41"></path>
                    <path d="M96.170442,70.4233688 C99.6634033,64.8173477 105.559793,52.1441234 105.559793,52.1441234 C105.559793,52.1441234 112.888332,59.7160265 117.454714,62.4616331 C120.976782,64.5793296 129.825143,66.7340326 129.825143,66.7340326 C129.825143,66.7340326 123.843372,73.9298529 120.31169,75.6824936 C116.678507,77.4855051 108.33055,77.400989 108.33055,77.400989 L116.604283,81.6962499 C116.604283,81.6962499 107.410099,88.053534 102.870682,88.6061596 C96.784946,89.3470329 84.7288231,85.5767464 84.7288231,85.5767464 C84.7288231,85.5767464 92.7197465,75.9615553 96.170442,70.4233688 Z" id="Hår-høyre" fill="#D5CA42"></path>
                    <ellipse id="Ansikt" fill="#F5E6D2" transform="translate(60.500000, 57.500000) rotate(-28.000000) translate(-60.500000, -57.500000) " cx="60.5" cy="57.5" rx="46.5" ry="40.5"></ellipse>
                    <ellipse id="Øye-venstre" fill="#543019" transform="translate(91.500000, 48.500000) rotate(-35.000000) translate(-91.500000, -48.500000) " cx="91.5" cy="48.5" rx="2.5" ry="3.5"></ellipse>
                    <ellipse id="Øye-høyre" fill="#543019" transform="translate(60.500000, 68.000000) rotate(-35.000000) translate(-60.500000, -68.000000) " cx="60.5" cy="68" rx="2.5" ry="4"></ellipse>
                    <path d="M35.1883193,66.9815849 C35.1883193,66.9815849 37.5644113,61.5276174 38.6220446,58.7509598 C39.9761409,55.1959831 42.4235078,47.9866819 42.4235078,47.9866819 C42.4235078,47.9866819 36.7546206,51.4145283 65.8580218,46.5105118 C94.961423,41.6064953 110.44095,25.091034 110.44095,25.091034 C110.44095,25.091034 99.9457827,27.1779195 89.2677203,20.3228764 C78.5896578,13.4678332 65.8580228,12.0752701 65.8580228,12.0752701 C65.8580228,12.0752701 51.1302955,9.66179739 27.4593314,25.9930646 C3.78836733,42.3243319 8.33444668,75.6589798 8.33444668,75.6589798 L35.1883193,66.9815849 Z" id="Hår" fill="#D5CA42"></path>
                    <path d="M5.33878355,74.5306181 C7.27858772,72.8751946 14.436192,72.6187387 14.436192,72.6187387 C14.436192,72.6187387 11.412007,67.3603243 11.589293,65.3614416 C11.7805329,63.205231 15.5417697,60.1534586 15.5417697,60.1534586 C15.5417697,60.1534586 20.1970042,59.2057377 21.5804611,60.61661 C23.026857,62.0916685 24.0208679,69.4562925 24.0208679,69.4562925 C24.0208679,69.4562925 28.1627528,64.6791013 30.0996566,64.4162525 C32.0031707,64.1579349 35.5421215,67.8927934 35.5421215,67.8927934 C35.5421215,67.8927934 36.0303668,73.7262855 34.9267173,75.2436508 C33.4929133,77.2149329 27.9297611,78.3587356 27.9297611,78.3587356 C27.9297611,78.3587356 31.6976778,81.1999142 32.0513435,82.748504 C32.4209765,84.3670094 30.0996571,87.8600214 30.0996571,87.8600214 C30.0996571,87.8600214 24.0702594,90.6931079 22.1458888,89.9389719 C20.2404955,89.1922728 18.6103654,83.357516 18.6103654,83.357516 C18.6103654,83.357516 12.3668835,85.5701978 9.88487296,85.1415495 C7.72113254,84.767867 5.33878356,82.748504 5.33878356,82.748504 C5.33878356,82.748504 4.02422787,75.6524562 5.33878355,74.5306181 Z" id="Blomst" fill="#FFFFFF"></path>
                </g>
                <path d="M66.3203062,97.8631712 C66.3203062,97.8631712 57.8443566,116.558178 52.4516697,126.280321 C48.7317663,132.986706 38.9825353,147.148754 38.9825353,147.148754 C38.9825353,147.148754 35.3577357,146.402681 33.2142456,149.62517 C31.0707556,152.847658 34.7624671,156.598108 34.7624671,156.598108 C34.7624671,156.598108 38.9825352,158.897844 41.4309967,155.620897 C43.8794583,152.34395 40.4254624,148.619083 40.4254624,148.619083 C40.4254624,148.619083 50.5154394,134.708354 54.8374997,127.45373 C58.5834593,121.166096 64.6295219,107.992308 64.6295219,107.992308 L85.3349346,102.915596 L91.5334359,93.6906147 L87.1984177,89.4414501 C87.1984177,89.4414501 99.84754,83.2110625 104.33968,79.5542374 C111.805855,73.4763993 123.073364,60.2374607 123.073364,60.2374607 C123.073364,60.2374607 127.945187,61.1158961 129.986645,59.4166578 C132.028103,57.7174195 129.986645,52.7214924 129.986645,52.7214924 C129.986645,52.7214924 125.543407,48.2068732 122.444828,52.0662709 C119.346249,55.9256685 121.762461,59.8831122 121.762461,59.8831122 C121.762461,59.8831122 109.552529,72.905026 104.053341,77.0934925 C97.5136049,82.0744947 85.6456902,87.3915184 85.6456902,87.3915184 L66.3203062,97.8631712 Z" id="Overkropp" fill="#F5E6D2"></path>
                <path d="M72.5145532,99.8330513 C71.0729171,100.271364 68.4442839,102.103871 66.9998819,104.107548 C65.121895,106.712695 64.5943395,109.563183 64.5943395,109.563183 C64.5943395,109.563183 68.6836727,115.154392 70.2586256,118.062844 C72.0201877,121.315905 74.6038844,128.047723 74.6038844,128.047723 C74.6038844,128.047723 67.7425702,135.650858 65.0686556,142.490679 C62.3574293,149.425944 58.4484616,169.372982 58.4484616,169.372982 C58.4484616,169.372982 55.2785823,191.637322 51.858595,200.967299 C47.430076,213.048625 34.4164969,233.606886 34.4164969,233.606886 C34.4164969,233.606886 46.5993413,233.295432 52.9920179,231.999159 C58.7536151,230.830854 71.365764,226.213156 71.365764,226.213156 C71.365764,226.213156 71.9036141,231.797772 73.2185441,233.606886 C74.4962401,235.364773 79.143642,236.914157 79.143642,236.914157 C79.143642,236.914157 82.0568455,233.71184 82.1241838,231.526045 C82.201337,229.02166 79.5771166,222.843618 79.5771166,222.843618 L91.5724766,216.820261 C91.5724766,216.820261 93.719811,222.721146 95.5040742,224.30902 C97.5515329,226.13112 102.517754,226.213149 102.517754,226.213149 C102.517754,226.213149 103.840886,221.343252 103.067646,218.753104 C102.331677,216.2878 98.5400157,211.883826 98.5400157,211.883826 C98.5400157,211.883826 105.396767,207.313092 108.076862,204.137084 C110.329024,201.468193 113.336787,194.349129 113.336787,194.349129 L113.769048,165.003056 C113.769048,165.003056 110.273403,143.933809 106.708103,136.132105 C103.520175,129.156178 93.5093643,120.670162 93.5093643,120.670162 L96.7398019,102.902553 C96.7398019,102.902553 95.6478235,98.6017189 94.7539865,97.043367 C93.8137781,95.4041693 91.237666,93.3099047 91.237666,93.3099047 C91.237666,93.3099047 87.6455595,95.7683333 86.5050279,97.043367 C85.1173617,98.5946797 83.6530725,101.788944 83.6530725,101.788944 C83.6530725,101.788944 75.4604562,98.9373847 72.5145532,99.8330513 Z" id="Kjole" stroke-opacity="0.0426290761" stroke="#000000" fill="#FFFFFF"></path>
            </g>
            <g id="Ballong" transform="translate(74.000000, 0.000000)" sketch:type="MSShapeGroup">
                <path d="M287.528389,10.8564512 C233.129097,22.4163286 214.044778,54.6521429 214.044778,54.6521429 C214.044778,54.6521429 186.445053,15.8720187 138.878472,3.36237171 C91.3118899,-9.1472753 51.6990893,16.0715144 51.6990893,16.0715144 C51.6990893,16.0715144 -33.4398088,62.8899707 15.0158334,183.183397 C63.4714756,303.476824 182.175427,380.815881 182.175427,380.815881 C182.175427,380.815881 279.240685,358.955995 369.941582,237.467775 C460.642479,115.979555 388.182365,48.4482772 388.182365,48.4482772 C388.182365,48.4482772 341.927681,-0.703426191 287.528389,10.8564512 Z M182.810304,382.508315 L183.484679,401.585467 L194.879157,396.139927 L182.810304,382.508315 Z" id="Hjerte" fill="#F08080"></path>
                <path d="M179.02748,382.359967 C179.02748,385.538894 180.356955,386.936462 180.356955,386.936462 C180.356955,386.936462 175.756295,404.457883 172.97766,413.081889 C170.030213,422.229833 163.178708,440.252312 163.178708,440.252312 C163.178708,440.252312 163.022634,468.58942 166.771212,477.729606 C168.675217,482.372156 176.1367,484.861874 180.356956,488.450049 C185.14268,492.519001 186.613818,497.394324 186.613818,497.394324 C186.613818,497.394324 186.78951,499.841209 182.419859,502.052215 C178.246438,504.163929 169.563023,506.001421 167.760536,507.744491 C163.727623,511.644461 163.445901,519.798523 163.445901,519.798523 C163.445901,519.798523 166.218883,527.799742 169.214976,529.785628 C173.306533,532.497617 184.70885,533.89215 184.70885,533.89215 C184.70885,533.89215 190.245074,532.585051 191.510759,530.478728 C192.8027,528.328712 192.381728,521.12313 192.381728,521.12313 C192.381728,521.12313 187.733364,515.641203 185.888197,515.424697 C182.951653,515.080133 179.02748,518.94522 179.02748,518.94522 L179.02748,521.595857 C179.02748,521.595857 183.758694,517.899305 185.888197,518.070861 C187.433411,518.195345 190.435707,523.078109 190.435707,523.078109 C190.435707,523.078109 190.937706,527.112959 190.051632,528.50804 C189.148125,529.930567 184.682888,530.936799 184.682888,530.936799 C184.682888,530.936799 174.603749,530.463752 171.376455,528.50804 C168.633191,526.845647 166.771212,520.082483 166.771212,520.082483 C166.771212,520.082483 165.853347,513.18299 169.214976,509.788192 C171.312422,507.67005 180.105781,505.807731 184.682888,503.281371 C188.599954,501.119325 188.53339,498.105577 188.53339,498.105577 C188.53339,498.105577 187.83893,492.873341 182.802833,487.893073 C179.115716,484.24683 171.013573,481.329259 169.596564,477.729606 C165.44525,467.183951 166.022097,440.919754 166.022097,440.919754 C166.022097,440.919754 172.54069,422.99877 175.366257,413.729487 C178.00661,405.067802 182.419859,387.126851 182.419859,387.126851 C182.419859,387.126851 185.731629,386.423152 186.613818,382.892724 C187.496007,379.362295 183.415614,378.298659 183.415614,378.298659 C183.415614,378.298659 179.02748,379.181041 179.02748,382.359967 Z" id="Tråd" stroke-opacity="0.04" stroke="#000000" fill="#FFFFFF"></path>
            </g>
            <g id="Kris" transform="translate(89.000000, 412.000000)" sketch:type="MSShapeGroup">
                <path d="M83.7917826,192.327482 C84.6246144,183.063354 81.227912,159.101452 81.227912,159.101452 C81.227912,159.101452 98.6473962,158.422701 105.476286,156.574795 C112.062317,154.792607 121.472673,148.211169 121.472673,148.211169 C121.472673,148.211169 122.961786,168.401847 122.741409,180.612868 C122.603349,188.26272 120.397362,207.793787 120.397362,207.793787 C120.397362,207.793787 124.284969,211.55466 126.21183,218.438715 C127.059196,221.466082 126.823874,227.857173 126.901153,230.132998 C126.956243,231.755368 121.321654,235.013654 121.321654,235.013654 C121.321654,235.013654 116.330505,236.034805 112.716568,233.171564 C110.739751,231.605378 109.745874,226.382772 108.881366,224.984049 C106.909551,221.793766 108.071311,213.575369 108.071311,213.575369 L104.276783,212.714686 C104.276783,212.714686 107.646074,194.319606 108.071312,187.077715 C108.45757,180.49966 106.71127,171.254847 106.71127,171.254847 C106.71127,171.254847 102.415261,176.616381 101.443527,180.612868 C100.522639,184.400237 100.757835,192.620141 100.0028,197.761591 C98.5323618,207.774617 95.6530911,216.734231 95.6530911,216.734231 C95.6530911,216.734231 97.6036698,219.485817 98.7290856,224.408968 C99.5672285,228.075439 99.7361935,233.852184 99.4316079,235.751444 C98.8121073,239.614374 91.6928308,242.615694 91.6928308,242.615694 C91.6928308,242.615694 84.5334173,240.650417 82.4931876,236.864832 C81.6510862,235.302338 80.4063379,231.139532 80.0132649,227.640528 C79.54748,223.494267 80.0132648,220.072672 80.0132648,220.072672 L75.9855001,217.416199 C75.9855001,217.416199 82.8771438,202.501603 83.7917826,192.327482 Z" id="Bukser" fill="#543019"></path>
                <path d="M104.594146,155.364916 C103.396506,155.709529 100.969971,156.409167 100.969971,156.409167 C100.969971,156.409167 100.518979,158.310853 100.415133,159.367573 C100.334032,160.192844 100.415133,162.055138 100.415133,162.055138 C100.415133,162.055138 103.855515,161.284196 105.577174,160.917683 C106.641524,160.691101 108.773159,160.275855 108.773159,160.275855 C108.773159,160.275855 108.617633,158.393019 108.588943,157.449397 C108.556228,156.373354 108.588944,154.216862 108.588944,154.216862 C108.588944,154.216862 105.936164,154.97876 104.594146,155.364916 Z" id="Belte" stroke="#FFFFFF" stroke-width="2"></path>
                <path d="M67.5218178,104.860849 L43.2987016,151.721309 L44.2580036,152.684932 L68.107341,110.096288 L81.0544546,159.595033 C81.0544546,159.595033 97.4622206,158.704491 104.634985,156.719311 C111.051974,154.943304 121.823714,148.311471 121.823714,148.311471 L104.634984,88.9356934 C104.634984,88.9356934 122.011475,73.8563773 128.63556,66.1678481 C135.925322,57.7066735 146.46266,39.8850564 146.46266,39.8850564 L144.54122,39.0572773 C144.54122,39.0572773 132.615373,57.2702531 126.038407,64.8993774 C119.130877,72.9119485 103.377284,87.0768039 103.377284,87.0768039 L67.5218178,104.860849 Z" id="Skjorte" stroke-opacity="0.04" stroke="#000000" fill="#FFFFFF"></path>
                <g id="Hode">
                    <ellipse id="Ansikt" fill="#F5E6D2" transform="translate(66.396506, 60.381365) rotate(-22.000000) translate(-66.396506, -60.381365) " cx="66.3965056" cy="60.3813649" rx="53.871163" ry="43.8744523"></ellipse>
                    <ellipse id="Øye-høyre" fill="#543019" transform="translate(80.500000, 71.500000) rotate(-35.000000) translate(-80.500000, -71.500000) " cx="80.5" cy="71.5" rx="2.5" ry="3.5"></ellipse>
                    <ellipse id="Øye-ventre" fill="#543019" transform="translate(44.500000, 85.000000) rotate(-35.000000) translate(-44.500000, -85.000000) " cx="44.5" cy="85" rx="2.5" ry="4"></ellipse>
                    <path d="M20.0597652,44.50656 C17.9182142,48.3474626 16.1000899,53.1955051 15.254471,56.4607436 C14.6159728,58.9262146 13.7020621,62.4336873 13.7401178,66.1126029 C13.8064383,72.5239465 15.254471,79.1081035 15.254471,79.1081035 L20.059765,59.075463 C20.059765,59.075463 24.2967019,45.6634318 33.1981293,39.8619078 C39.8734816,35.5112328 49.6401306,36.686529 49.6401306,36.686529 C49.6401306,36.686529 60.2856918,25.6174629 69.9096085,24.8352059 C74.1767098,24.4883647 85.0276526,23.616368 94.7138916,27.9851873 C106.87376,33.4696968 117.752378,44.5065596 117.752378,44.5065596 C117.752378,44.5065596 115.642772,37.0234552 112.848032,33.4444796 C111.658438,31.9210728 109.119798,28.5877686 107.027452,26.8168818 C103.385262,23.7342624 99.5871228,21.2439344 99.5871228,21.2439344 C99.5871228,21.2439344 89.0629109,16.427183 83.2936951,15.7357521 C80.558378,15.4079289 76.003131,14.7383136 71.9966865,14.8925399 C65.6484381,15.1369128 59.9993263,16.3999087 59.9993263,16.3999087 C59.9993263,16.3999087 46.8284845,20.9891564 42.6629647,23.2786643 C35.7498943,27.078317 27.5229548,33.4444796 27.5229548,33.4444796 C27.5229548,33.4444796 23.1988725,38.8765258 20.0597652,44.50656 Z" id="Hår" fill="#543019"></path>
                </g>
                <circle id="Hånd-høyre" fill="#F5E6D2" cx="148" cy="36" r="5"></circle>
                <circle id="Hånd-venstre" fill="#F5E6D2" cx="42" cy="155" r="5"></circle>
                <g id="Slips" transform="translate(69.000000, 98.000000)" fill="#543019">
                    <path d="M21.6323931,0.416606503 L19.2794072,8.56223898 L27.5866515,11.0957773 L29.5608127,5.86617308 L21.6323931,0.416606503 Z" id="Path-9"></path>
                    <path d="M22.6802695,41.1023056 C24.1808168,38.5727773 27.1032061,30.7084434 28.0549872,25.6591161 C29.5278966,17.8451328 28.6293337,12.6718686 28.6293337,12.6718686 C28.6293337,12.6718686 28.3022807,10.9556354 27.5533507,13.0519146 C26.7076568,15.4190391 25.0411371,22.3405666 23.6254961,26.3874359 C21.7160972,31.8458027 19.5273067,34.2446773 17.5927241,37.0409441 C13.1702866,43.4331835 1.28129541,51.5535703 1.28129541,51.5535703 L0.121605145,60.0416721 C0.121605145,60.0416721 17.0548633,50.5852612 22.6802695,41.1023056 Z" id="Path-10"></path>
                </g>
            </g>
        </g>
    </g>
</svg>