<?xml version="1.0" encoding="UTF-8" standalone="no"?>
<?xml-stylesheet href="../css/svg.css" type="text/css"?>
<svg width="100%" height="100%" viewBox="0 0 390 211" version="1.1" xmlns="http://www.w3.org/2000/svg" xmlns:xlink="http://www.w3.org/1999/xlink" xmlns:sketch="http://www.bohemiancoding.com/sketch/ns">
    <!-- Generator: Sketch 3.0.4 (8054) - http://www.bohemiancoding.com/sketch -->
    <title>plane</title>
    <desc>Created with Sketch.</desc>
    <defs></defs>
    <g id="Page-1" stroke="none" stroke-width="1" fill="none" fill-rule="evenodd" sketch:type="MSPage">
        <g id="plane" sketch:type="MSLayerGroup" transform="translate(1.000000, 1.000000)">
            <g id="wing_lower" transform="translate(5.000000, 88.000000)" fill="#F08080" sketch:type="MSShapeGroup">
                <path d="M0.048544378,14.3474704 C-1.47890911,4.27677988 3.2897473,-0.750986843 12.1610458,0.278279872 C21.0323442,1.30754659 320.466833,75.0023627 320.466833,75.0023627 C320.466833,75.0023627 348.478582,85.2286734 353.538915,95.6216406 C358.599249,106.014608 338.21784,101.808889 338.21784,101.808889 C338.21784,101.808889 37.4280679,52.9978651 18.9451669,42.7633759 C0.462265971,32.5288866 1.62159892,24.7188142 0.048544378,14.3474704 Z" id="wing"></path>
            </g>
            <g id="wires_right" transform="translate(268.000000, 87.000000)" stroke="#532F18" stroke-width="2" stroke-linecap="square" sketch:type="MSShapeGroup">
                <path d="M29.5,8.5 L71.5,95.5" id="Line"></path>
                <path d="M96,27 L25,68" id="Line-2"></path>
                <path d="M70,19 L24,39" id="Line-3"></path>
                <path d="M52,75 L0,0" id="Line-4"></path>
            </g>
            <g id="body" transform="translate(96.000000, 15.000000)" sketch:type="MSShapeGroup">
                <path d="M67.7847571,98.4493771 C34.0408962,70.9496572 30.2949169,50.6272234 34.9796042,49.2054806 C39.6642915,47.7837379 173.533234,83.542771 180.926754,88.7960242 C188.320274,94.0492773 218.062629,121.060946 207.808529,140.46064 C197.554429,159.860333 166.346356,158.072836 146.809387,151.809967 C127.272418,145.547097 100.592863,125.186499 67.7847571,98.4493771 Z" fill="#F08080"></path>
                <path d="M36.8969689,63.5642026 C46.0260301,61.5705047 90.0559555,113.458455 202.796999,143.566501 C180.00494,195.463739 105.071201,129.270585 103.873417,128.00158 C60.481886,97.3563893 33.6331385,64.3142216 36.8969689,63.5642026 Z" id="shadow" fill="#EB5252"></path>
                <path d="M33.3317089,52.2924121 C33.3317089,52.2924121 0.410631509,42.890649 0.132990743,46.7737581 C-0.261590843,52.2924122 36.9674204,64.3098085 36.9674204,64.3098085 L33.3317089,52.2924121 Z" id="wing" fill="#F08080"></path>
                <g id="tail" transform="translate(40.000000, 0.000000)">
                    <path d="M28.6180716,57.4897547 C28.6180716,57.4897547 31.8965015,-3.15908845 22.7322626,-0.303237179 C8.07906306,4.26313861 0.441325225,49.9959684 0.441325225,49.9959684 L28.6180716,57.4897547 Z" fill="#F08080"></path>
                    <path d="M19.9281441,54.5113485 C19.9281441,54.5113485 25.9185278,3.48077405 21.4825452,2.28850714 C9.84934693,-0.838168166 0.338688253,50.2135061 0.338688253,50.2135061 L19.9281441,54.5113485 Z" id="shadow" fill="#EB5252"></path>
                </g>
                <path d="M177.91931,87.5991296 C176.54131,88.7954642 156.75864,84.0390826 148.870178,92.2171036 C146.430782,92.2171027 140.632208,88.3849242 140.632208,88.3849242 C140.632208,88.3849242 155.995733,60.7376353 177.91931,87.5991296 Z" id="dashboard" fill="#EB5252"></path>
            </g>
            <g id="wires_left" transform="translate(42.000000, 28.000000)" stroke="#532F18" stroke-width="2" stroke-linecap="square" sketch:type="MSShapeGroup">
                <path d="M154.5,39.5 L4.5,101.5" id="Line"></path>
                <path d="M133.5,33.5 L0,68" id="Line-2"></path>
                <path d="M115,97 L14,0" id="Line-3"></path>
                <path d="M131,125 L30,4" id="Line-4"></path>
            </g>
            <g id="wing_upper" sketch:type="MSShapeGroup">
                <path d="M3.64169589,-0.319355013 C13.8186007,0.931762416 371.504895,107.160402 371.504895,107.160402 C371.504895,107.160402 382.479509,110.578181 385.572686,113.106716 C387.753998,114.889842 389.878686,120.095387 387.328362,120.095387 C384.778039,120.095387 14.6568059,15.9533395 9.84509763,14.708455 C5.03338939,13.4635706 -6.5352089,-1.57047244 3.64169589,-0.319355013 Z" id="wing" fill="#F08080"></path>
                <path d="M11.0383123,8.69996998 L382.634601,116.417194 L10.9918263,11.2208205 L11.0383123,8.69996998 Z" id="glare" fill="#FFFFFF"></path>
            </g>
            <g id="landing" transform="translate(175.000000, 168.000000)" sketch:type="MSShapeGroup">
                <ellipse id="wheel-right" fill="#532F18" transform="translate(88.500000, 29.500000) rotate(15.000000) translate(-88.500000, -29.500000) " cx="88.5" cy="29.5" rx="9.5" ry="12.5"></ellipse>
                <path d="M20.1216444,17.3835547 L44.0222445,-0.345970526 L78.9146544,4.72678135 C78.9146544,4.72678135 87.6856627,26.4609276 88.7763609,30.149017 C87.6856627,33.5523563 87.1298308,33.6502377 85.0428251,34.3039585 C82.0818686,30.149017 69.4454328,5.73230616 69.4454328,5.73230616 L59.586904,4.2513499 L23.4439441,24.6056 L20.1216444,17.3835547 Z" id="crossbar" fill="#EB5252"></path>
                <path d="M24.8908956,18.8543413 L85.3123218,28.1497253 L84.7526729,33.4417604 L23.3959561,23.792663 L24.8908956,18.8543413 Z" id="bar" fill="#F08080"></path>
                <g id="wheel_left" transform="translate(0.000000, 3.000000)">
                    <ellipse id="Oval-9" fill="#532F18" transform="translate(15.000000, 17.500000) rotate(15.000000) translate(-15.000000, -17.500000) " cx="15" cy="17.5" rx="11" ry="15.5"></ellipse>
                    <ellipse id="Oval-10" fill="#FFFFFF" transform="translate(10.500000, 16.500000) rotate(13.000000) translate(-10.500000, -16.500000) " cx="10.5" cy="16.5" rx="3.5" ry="7.5"></ellipse>
                </g>
            </g>
            <g id="propeller" transform="translate(241.000000, 96.000000)" sketch:type="MSShapeGroup">
                <g id="spinner" transform="translate(47.000000, 46.000000)">
                    <path d="M23.1452177,17.7770147 C23.1452177,17.7770147 21.6571534,2.81300123 11.6014065,0.0739906611 C6.74634488,-1.22639005 -6.81841882,9.47116836 3.31525009,21.3283443 C13.6202647,26.6366967 23.1452177,17.7770147 23.1452177,17.7770147 Z" fill="#FFFFFF"></path>
                    <path d="M23.0136721,17.3291317 L0.5255481,11.443524 C0.5255481,11.443524 -1.10411716,19.4209238 5.18580414,22.3702408 C15.3839896,25.874231 23.0136721,17.3291317 23.0136721,17.3291317 Z" id="dark" fill="#7B7B7B"></path>
                    <path d="M23.1707721,17.4142149 C23.1707721,17.4142149 8.49415018,2.67726564 4.8045714,3.43889326 C1.84436204,4.65255393 1.2377411,9.0174593 0.576658418,11.0396686 C11.6194212,18.6785673 23.1707721,17.4142149 23.1707721,17.4142149 Z" id="shadow" fill="#DDDDDD"></path>
                </g>
                <g id="blade" fill="#FFFFFF">
                    <g id="blades">
                        <path d="M54.7135971,79.7817921 C45.1802887,78.3555587 37.6444413,70.8197113 36.2182079,61.2864029 L36.2182079,61.2864029 L43.5756088,60.7608742 C44.6972216,66.6563564 49.3436436,71.3027784 55.2391258,72.4243912 L54.7135971,79.7817921 Z M61.2864029,79.7817921 C70.8197113,78.3555587 78.3555587,70.8197113 79.7817921,61.2864029 L72.4243912,60.7608742 C71.3027784,66.6563564 66.6563564,71.3027784 60.7608742,72.4243912 L61.2864029,79.7817921 Z M36.2182079,54.7135971 C37.6444413,45.1802887 45.1802887,37.6444413 54.7135971,36.2182079 L54.7135971,36.2182079 L55.2391258,43.5756088 C49.3436436,44.6972216 44.6972216,49.3436436 43.5756088,55.2391258 L36.2182079,54.7135971 L36.2182079,54.7135971 Z M61.2864029,36.2182079 C70.8197113,37.6444413 78.3555587,45.1802887 79.7817921,54.7135971 L79.7817921,54.7135971 L72.4243912,55.2391258 C71.3027784,49.3436436 66.6563564,44.6972216 60.7608742,43.5756088 L61.2864029,36.2182079 L61.2864029,36.2182079 Z" id="Oval-23"></path>
                        <path d="M53.7208354,93.6804564 C37.3653569,91.593283 24.406717,78.6346431 22.3195436,62.2791646 L22.3195436,62.2791646 L29.6578084,61.7550028 C31.4675037,74.4724603 41.5275397,84.5324963 54.2449972,86.3421916 L53.7208354,93.6804564 Z M62.2852695,93.7659246 C78.9656026,91.9778165 92.2687848,78.9039341 94.4079641,62.3311294 L87.0689341,61.806913 C85.2044882,74.741229 74.8040848,84.9157051 61.7617276,86.4363379 L62.2852695,93.7659246 Z M22.2340754,53.7147305 C24.0221835,37.0343974 37.0960659,23.7312152 53.6688706,21.5920359 L53.6688706,21.5920359 L54.193087,28.9310659 C41.258771,30.7955118 31.0842949,41.1959152 29.5636621,54.2382724 L22.2340754,53.7147305 L22.2340754,53.7147305 Z M62.3373095,21.5055146 C79.2366608,23.3416534 92.6583466,36.7633392 94.4944854,53.6626905 L94.4944854,53.6626905 L87.1644042,54.1862677 C85.5940019,40.9248867 75.0751133,30.4059981 61.8137323,28.8355958 L62.3373095,21.5055146 L62.3373095,21.5055146 Z" id="Oval-24"></path>
                        <path d="M52.67343,108.344132 C29.0419749,105.720431 10.2795692,86.9580251 7.65586841,63.32657 L7.65586841,63.32657 L14.9862868,62.8029687 C17.3437649,82.796449 33.203551,98.6562351 53.1970313,101.013713 L52.67343,108.344132 Z M63.3319726,108.419768 C87.2881491,106.106538 106.399906,87.2279018 109.072506,63.3785967 L101.741727,62.8549697 C99.3340594,83.0660831 83.1269308,99.0416789 62.8086631,101.093435 L63.3319726,108.419768 Z M7.58023199,52.6680274 C9.89346214,28.7118509 28.7720982,9.60009426 52.6214033,6.92749445 L52.6214033,6.92749445 L53.1450303,14.2582727 C32.9339169,16.6659406 16.9583211,32.8730692 14.9065646,53.1913369 L7.58023199,52.6680274 L7.58023199,52.6680274 Z M63.3840527,6.85111051 C87.559256,9.21040767 106.789592,28.440744 109.148889,52.6159473 L109.148889,52.6159473 L101.822324,53.1392734 C99.7236851,32.6019845 83.3980155,16.2763149 62.8607266,14.1776762 L63.3840527,6.85111051 L63.3840527,6.85111051 Z" id="Oval-25"></path>
                    </g>
                </g>
            </g>
            <g id="cat" transform="translate(174.000000, 48.000000)" sketch:type="MSShapeGroup">
                <path d="M61.5,44 C75.5832611,44 88.2443504,43.3410292 88.2443504,32.5965633 C88.2443504,21.8520975 76.7209949,12.5376078 61.5,11 C46.2790051,9.46239221 35.4530324,18.3004047 35.4530324,27.413103 C35.4530324,36.5258014 47.4167389,44 61.5,44 Z" id="face" fill="#532F18"></path>
                <g id="ear_left" transform="translate(32.000000, 0.000000)">
                    <polygon fill="#543019" transform="translate(9.305001, 9.875772) rotate(-25.000000) translate(-9.305001, -9.875772) " points="10.3050013 1.37577216 15.3104051 15.6021926 3.08463739 18.4169099 "></polygon>
                    <polygon id="inside" fill="#FFFFFF" transform="translate(10.305001, 10.875772) rotate(-25.000000) translate(-10.305001, -10.875772) " points="10.7531857 7.06620501 12.9965294 13.4422643 7.51713144 14.7037766 "></polygon>
                </g>
                <g id="ear_right" transform="translate(73.000000, 4.000000)">
                    <polygon fill="#543019" transform="translate(9.953213, 10.162490) rotate(28.000000) translate(-9.953213, -10.162490) " points="9.65932339 1.9188654 16.7020408 18.2446563 2.61660593 15.3889101 "></polygon>
                    <polygon id="inside" fill="#FFFFFF" transform="translate(8.953213, 11.162490) rotate(28.000000) translate(-8.953213, -11.162490) " points="8.80817791 7.09424312 12.2837743 15.1510565 5.3325815 13.7417395 "></polygon>
                </g>
                <g id="eye_left" transform="translate(50.000000, 32.500000) rotate(-6.000000) translate(-50.000000, -32.500000) translate(44.000000, 27.000000)">
                    <ellipse fill="#FFFFFF" transform="translate(6.000000, 5.500000) rotate(-325.000000) translate(-6.000000, -5.500000) " cx="6" cy="5.5" rx="6" ry="2.5"></ellipse>
                    <ellipse id="pupil" fill="#532F18" transform="translate(7.500000, 7.000000) rotate(20.000000) translate(-7.500000, -7.000000) " cx="7.5" cy="7" rx="1.5" ry="3"></ellipse>
                </g>
                <g id="eye_right" transform="translate(67.000000, 31.000000)">
                    <ellipse fill="#FFFFFF" transform="translate(6.000000, 3.500000) rotate(-14.000000) translate(-6.000000, -3.500000) " cx="6" cy="3.5" rx="6" ry="2.5"></ellipse>
                    <ellipse id="pupil" fill="#532F18" transform="translate(4.500000, 4.000000) rotate(-11.000000) translate(-4.500000, -4.000000) " cx="4.5" cy="4" rx="1.5" ry="3"></ellipse>
                </g>
                <polygon id="nose" fill="#FFFFFF" transform="translate(60.500000, 40.000000) rotate(-167.000000) translate(-60.500000, -40.000000) " points="60.5 38 63 42 58 42 "></polygon>
                <path d="M73.0248431,45.1587633 C59.4662673,44.2422799 48.9425867,42.2877581 47.4653674,41.7403104 C31.6935576,27.6943854 22.8987826,28.1199586 20.4156501,23.810085 C17.5722693,24.3738297 15.255,24.8323464 14.7314056,25.7929323 C14.9303368,29.7481355 18.8492716,31.3273796 28.1210421,31.6869871 C30.3660925,32.6909449 44.9451388,41.7403109 44.9451388,41.7403109 L37.4568194,38.9344923 C37.4568194,38.9344923 17.8595637,39.7540972 14.4485828,38.2426938 C7.65848621,34.2303631 8.74358311,24.6719024 8.58549865,23.8100851 C2.30752316,23.2433051 1.32302495,23.2864306 -0.0599805508,23.2864306 C1.32302495,39.4250482 8.25303539,42.2094988 9.72025465,42.7443931 C19.1399039,45.1234888 32.9034289,42.0703157 41.0264757,42.7443937 C51.0283717,50.0865606 67.6583804,49.3831533 67.6583804,49.3831533 C67.6583804,49.3831533 70.8974082,46.8415917 73.0248431,45.1587633 Z" id="scarf" fill="#FFFFFF"></path>
                <g id="whiskers" transform="translate(35.000000, 36.000000)" stroke="#532F18" stroke-width="2" stroke-linecap="square">
                    <path d="M8.35714286,-0.5 C8.35714286,-0.5 4.57934008,0.624719863 3.41339912,1.14291584 C1.57934008,1.9580532 -0.642857143,3.5 -0.642857143,3.5" id="Line"></path>
                    <path d="M11.25,2.58333333 C11.25,2.58333333 8.64606296,4.37666168 7.28579851,4.98122366 C5.14606296,5.93221724 5.48229897,8.72314064 5.48229897,8.72314064" id="Line"></path>
                </g>
            </g>
        </g>
    </g>
</svg>